<?xml version="1.0" encoding="utf-8"?>
<!-- Generator: Adobe Illustrator 27.5.0, SVG Export Plug-In . SVG Version: 6.00 Build 0)  -->
<svg version="1.1" xmlns="http://www.w3.org/2000/svg" xmlns:xlink="http://www.w3.org/1999/xlink" x="0px" y="0px"
	 viewBox="0 0 750 500" style="enable-background:new 0 0 750 500;" xml:space="preserve">
<g id="BACKGROUND">
	<rect style="fill:#FFFFFF;" width="750" height="500"/>
</g>
<g id="OBJECTS">
	<g>
		<g>
			<path style="fill:none;stroke:#ADBBF9;stroke-linejoin:round;stroke-miterlimit:10;stroke-dasharray:3.5,3.5;" d="
				M302.182,376.097c-5.762-19.901-22.243-35.205-43.502-35.719c-12.361-0.299-24.351,5.005-34.876,11.048
				c-14.211,8.16-30.965,18.013-47.967,15.536c-10.891-1.586-23.795-7.698-26.35-20.325c-2.705-13.363,8.093-22.528,19.634-27.903
				c9.888-4.605,23.762-15.619,28.205-26.162c17.621-41.811-31.652-89.53-17.746-137.181
				c14.553-49.868,81.939-58.298,115.813-24.438c3.247,3.246,6.284,6.71,9.046,10.379c6.913,9.18,10.98,21.682,20.589,28.571
				c12.444,8.916,28.565,6.063,41.966,0.768c25.612-10.12,32.385-16.797,57.427-27.696c18.011-7.839,40.196-14.833,60.433-7.867
				c14.501,4.992,30.517,13.966,38.627,26.959c15.081,24.162,8.309,50.191,32.15,84.55c10.802,15.567,27.971,19.931,41.649,31.18
				c35.463,29.162,23.607,90.637-15.069,111.675c-31.758,17.275-70.861,13.328-105.3,8.902c-2.64-0.339-5.276-0.704-7.91-1.09"/>
			<path style="fill:#E4E9F9;" d="M553.607,149.469c2.981-3.399,5.626-7.185,7.829-11.357c2.203-4.173,3.839-8.491,4.966-12.87
				l-11.822-4.191c0.946-4.084,1.311-8.224,1.141-12.316l12.409-1.93c-0.607-9.23-3.381-18.214-8.084-26.18l-11.337,5.402
				c-2.167-3.475-4.802-6.688-7.886-9.528l7.401-10.127c-3.399-2.981-7.185-5.626-11.357-7.83
				c-4.172-2.203-8.491-3.839-12.869-4.966l-4.191,11.822c-4.084-0.946-8.224-1.311-12.316-1.141l-1.93-12.409
				c-9.23,0.607-18.214,3.381-26.18,8.084l5.402,11.337c-3.475,2.167-6.688,4.803-9.528,7.887l-10.127-7.401
				c-2.981,3.399-5.626,7.185-7.829,11.357c-2.204,4.172-3.839,8.491-4.966,12.87l11.822,4.191
				c-0.946,4.084-1.311,8.225-1.141,12.316l-12.409,1.93c0.607,9.23,3.381,18.214,8.084,26.18l11.337-5.402
				c2.167,3.475,4.802,6.688,7.886,9.528l-7.401,10.127c3.399,2.981,7.185,5.626,11.357,7.829c4.172,2.204,8.491,3.839,12.869,4.966
				l4.191-11.822c4.084,0.946,8.225,1.311,12.316,1.141l1.93,12.409c9.23-0.607,18.214-3.381,26.18-8.084l-5.402-11.337
				c3.475-2.167,6.688-4.802,9.528-7.886L553.607,149.469z M495.628,136.626c-14.367-7.588-19.863-25.386-12.275-39.754
				c7.588-14.367,25.386-19.863,39.754-12.275c14.367,7.588,19.863,25.386,12.275,39.754
				C527.794,138.718,509.995,144.214,495.628,136.626z M499.604,129.097c-10.209-5.392-14.114-18.039-8.722-28.248
				c5.392-10.209,18.039-14.114,28.248-8.722c10.209,5.392,14.114,18.038,8.722,28.247
				C522.46,130.583,509.813,134.488,499.604,129.097z"/>
			<path style="fill:#E4E9F9;" d="M285.004,177.928c1.627-2.278,3.023-4.774,4.123-7.48c1.1-2.707,1.842-5.468,2.266-8.235
				l-7.542-1.853c0.331-2.575,0.301-5.148-0.056-7.658l7.526-1.954c-0.943-5.649-3.206-11.014-6.595-15.631l-6.652,4.027
				c-1.549-2.007-3.371-3.824-5.447-5.384l3.935-6.696c-2.278-1.627-4.773-3.023-7.48-4.123c-2.707-1.1-5.468-1.842-8.235-2.266
				l-1.853,7.542c-2.575-0.331-5.148-0.301-7.658,0.056l-1.954-7.526c-5.649,0.943-11.014,3.206-15.631,6.595l4.027,6.652
				c-2.007,1.549-3.825,3.371-5.384,5.447l-6.696-3.935c-1.627,2.278-3.023,4.773-4.123,7.48c-1.1,2.707-1.842,5.468-2.266,8.235
				l7.542,1.853c-0.331,2.575-0.301,5.148,0.056,7.658l-7.526,1.954c0.943,5.649,3.206,11.014,6.595,15.631l6.652-4.027
				c1.549,2.007,3.371,3.825,5.446,5.384l-3.935,6.696c2.278,1.627,4.774,3.023,7.48,4.123c2.706,1.101,5.468,1.842,8.235,2.266
				l1.853-7.542c2.575,0.331,5.148,0.301,7.658-0.056l1.954,7.526c5.649-0.943,11.014-3.206,15.631-6.595l-4.027-6.651
				c2.007-1.549,3.825-3.371,5.384-5.447L285.004,177.928z M248.491,173.59c-9.32-3.789-13.803-14.416-10.014-23.736
				c3.789-9.32,14.416-13.803,23.736-10.014c9.32,3.789,13.803,14.416,10.014,23.736
				C268.438,172.896,257.811,177.379,248.491,173.59z M250.477,168.706c-6.622-2.692-9.808-10.244-7.116-16.866
				c2.692-6.622,10.244-9.808,16.866-7.115c6.622,2.692,9.808,10.243,7.116,16.866C264.65,168.212,257.099,171.398,250.477,168.706z
				"/>
			<path style="fill:#E4E9F9;" d="M314.944,108.57c1.292-1.473,2.439-3.115,3.394-4.923c0.955-1.809,1.664-3.681,2.153-5.579
				l-5.125-1.817c0.41-1.77,0.568-3.565,0.495-5.339l5.379-0.837c-0.263-4.001-1.466-7.895-3.504-11.348l-4.914,2.342
				c-0.939-1.506-2.082-2.899-3.419-4.13l3.208-4.39c-1.473-1.292-3.114-2.439-4.923-3.394c-1.809-0.955-3.681-1.664-5.579-2.152
				l-1.817,5.124c-1.77-0.41-3.565-0.568-5.339-0.495l-0.837-5.379c-4.001,0.263-7.895,1.466-11.348,3.504l2.342,4.914
				c-1.506,0.939-2.899,2.082-4.13,3.419l-4.39-3.208c-1.292,1.473-2.439,3.115-3.394,4.923c-0.955,1.809-1.664,3.681-2.153,5.579
				l5.124,1.817c-0.41,1.77-0.568,3.565-0.495,5.339l-5.379,0.837c0.263,4.001,1.465,7.895,3.504,11.348l4.914-2.342
				c0.939,1.506,2.082,2.899,3.418,4.13l-3.208,4.39c1.473,1.292,3.115,2.439,4.923,3.394c1.809,0.955,3.681,1.664,5.579,2.153
				l1.817-5.125c1.77,0.41,3.565,0.568,5.339,0.495l0.837,5.379c4.001-0.263,7.895-1.465,11.348-3.504l-2.342-4.914
				c1.506-0.939,2.899-2.082,4.13-3.419L314.944,108.57z M291.479,99.846c-4.484-2.368-6.199-7.923-3.831-12.407
				c2.368-4.484,7.923-6.199,12.407-3.831c4.484,2.368,6.199,7.923,3.831,12.407C301.518,100.499,295.963,102.214,291.479,99.846z"
				/>
			<path style="fill:#FFFFFF;stroke:#ADBBF9;stroke-linejoin:round;stroke-miterlimit:10;" d="M194.109,188.326
				c-0.033-0.667-0.089-1.376-0.173-2.134c-0.686-6.209-4.94-5.639-7.587-5.45c-2.647,0.189-5.938,0.288-7.204-2.6
				c-0.551-1.257-0.527-2.774-0.889-4.132c-0.802-3.011-3.48-4.815-6.038-4.821c-2.558-0.006-4.979,1.461-7.075,3.278
				c-1.089,0.944-2.316,2.05-3.613,1.694c-0.831-0.228-1.48-1.025-1.997-1.863c-3.032-4.922-3.013-12.079-6.333-16.707
				c-3.665-5.11-10.51-5.213-15.144-1.504s-7.295,10.318-8.509,16.987c-0.395,2.168-0.736,4.545-2.073,6.025
				c-1.912,2.114-4.839,1.415-7.39,1.128c-2.961-0.332-6.12,0.151-8.523,2.321c-1.96,1.769-3.235,4.866-2.992,7.779H194.109z"/>
			<path style="fill:#FFFFFF;stroke:#ADBBF9;stroke-linejoin:round;stroke-miterlimit:10;" d="M365.398,80.771h84.176
				c0,0-3.375-3.924-7.192-5.262c-4.805-1.684-6.804,3.045-9.837-3.07c-1.701-3.431-2.894-7.948-7.371-9.121
				c-7.002-1.834-8.783,3.952-12.119,2.388c-2.929-1.373-2.838-6.866-5.794-11.458c-2.889-4.488-9.932-7.25-14.736-4.909
				c-8.777,4.277-7.637,11.081-10.512,13.324c-2.837,2.214-9.344-5.58-16.615,2.847C360.385,71.321,365.398,80.771,365.398,80.771z"
				/>
			<path style="fill:none;stroke:#ADBBF9;stroke-linejoin:round;stroke-miterlimit:10;" d="M453.269,51.849
				c0,2.041-1.654,3.695-3.695,3.695c-2.04,0-3.695-1.654-3.695-3.695c0-2.04,1.654-3.695,3.695-3.695
				C451.614,48.154,453.269,49.808,453.269,51.849z"/>
			<path style="fill:none;stroke:#ADBBF9;stroke-linejoin:round;stroke-miterlimit:10;" d="M696.698,349.541
				c0,2.04-1.654,3.695-3.695,3.695c-2.041,0-3.695-1.654-3.695-3.695c0-2.041,1.654-3.695,3.695-3.695
				C695.043,345.846,696.698,347.5,696.698,349.541z"/>
			<path style="fill:none;stroke:#ADBBF9;stroke-linejoin:round;stroke-miterlimit:10;" d="M520.279,196.485
				c0,2.04-1.654,3.695-3.695,3.695c-2.04,0-3.695-1.654-3.695-3.695c0-2.041,1.654-3.695,3.695-3.695
				C518.625,192.79,520.279,194.445,520.279,196.485z"/>
			<path style="fill:none;stroke:#ADBBF9;stroke-linejoin:round;stroke-miterlimit:10;" d="M63.422,240.288
				c0,2.04-1.654,3.695-3.695,3.695c-2.041,0-3.695-1.654-3.695-3.695c0-2.041,1.654-3.695,3.695-3.695
				C61.768,236.593,63.422,238.247,63.422,240.288z"/>
			<path style="fill:none;stroke:#ADBBF9;stroke-linejoin:round;stroke-miterlimit:10;" d="M214.111,101.814
				c0,2.041-1.654,3.695-3.695,3.695c-2.041,0-3.695-1.654-3.695-3.695c0-2.041,1.654-3.695,3.695-3.695
				C212.456,98.119,214.111,99.773,214.111,101.814z"/>
			<path style="fill:none;stroke:#ADBBF9;stroke-linejoin:round;stroke-miterlimit:10;" d="M257.863,85.014
				c0,1.387-1.125,2.511-2.512,2.511s-2.512-1.124-2.512-2.511s1.124-2.512,2.512-2.512S257.863,83.627,257.863,85.014z"/>
			<path style="fill:none;stroke:#ADBBF9;stroke-linejoin:round;stroke-miterlimit:10;" d="M666.809,262.763
				c0,1.387-1.124,2.512-2.511,2.512c-1.387,0-2.512-1.124-2.512-2.512c0-1.387,1.124-2.512,2.512-2.512
				C665.684,260.251,666.809,261.376,666.809,262.763z"/>
			<circle style="fill:none;stroke:#ADBBF9;stroke-linejoin:round;stroke-miterlimit:10;" cx="484.382" cy="179.653" r="2.512"/>
			<path style="fill:none;stroke:#ADBBF9;stroke-linejoin:round;stroke-miterlimit:10;" d="M585.657,116.474
				c0,1.387-1.125,2.512-2.512,2.512c-1.387,0-2.512-1.124-2.512-2.512s1.124-2.512,2.512-2.512
				C584.532,113.963,585.657,115.087,585.657,116.474z"/>
			<path style="fill:none;stroke:#ADBBF9;stroke-linejoin:round;stroke-miterlimit:10;" d="M580.311,300.419
				c0,1.387-1.125,2.512-2.512,2.512c-1.387,0-2.512-1.124-2.512-2.512c0-1.387,1.124-2.512,2.512-2.512
				C579.186,297.908,580.311,299.032,580.311,300.419z"/>
			<path style="fill:none;stroke:#ADBBF9;stroke-linejoin:round;stroke-miterlimit:10;" d="M190.597,324.459
				c0,1.387-1.125,2.512-2.512,2.512s-2.512-1.124-2.512-2.512c0-1.387,1.124-2.512,2.512-2.512S190.597,323.072,190.597,324.459z"
				/>
			<path style="fill:none;stroke:#ADBBF9;stroke-linejoin:round;stroke-miterlimit:10;" d="M198.132,209.747
				c0,1.387-1.124,2.512-2.512,2.512s-2.512-1.124-2.512-2.512c0-1.387,1.124-2.512,2.512-2.512S198.132,208.36,198.132,209.747z"/>
			<path style="fill:#E4E9F9;" d="M682.254,226.844h-3.364c-0.604,0-1.094-0.49-1.094-1.094v-3.365c0-0.604,0.49-1.094,1.094-1.094
				h3.364c0.604,0,1.094,0.49,1.094,1.094v3.365C683.348,226.355,682.858,226.844,682.254,226.844z"/>
			<path style="fill:#E4E9F9;" d="M165.128,342.428h-3.365c-0.604,0-1.094-0.49-1.094-1.094v-3.365c0-0.604,0.49-1.094,1.094-1.094
				h3.365c0.604,0,1.094,0.49,1.094,1.094v3.365C166.222,341.939,165.733,342.428,165.128,342.428z"/>
			<path style="fill:#E4E9F9;" d="M159.283,137.884h-3.365c-0.604,0-1.094-0.49-1.094-1.094v-3.365c0-0.604,0.49-1.094,1.094-1.094
				h3.365c0.604,0,1.094,0.49,1.094,1.094v3.365C160.377,137.395,159.887,137.884,159.283,137.884z"/>
			<path style="fill:#E4E9F9;" d="M590.95,98.18h-6.456c-1.159,0-2.099-0.94-2.099-2.099v-6.456c0-1.159,0.94-2.099,2.099-2.099
				h6.456c1.159,0,2.099,0.94,2.099,2.099v6.456C593.049,97.24,592.109,98.18,590.95,98.18z"/>
			<path style="fill:#E4E9F9;" d="M530.697,259.15h-3.365c-0.604,0-1.094-0.49-1.094-1.094v-3.365c0-0.604,0.49-1.094,1.094-1.094
				h3.365c0.604,0,1.094,0.49,1.094,1.094v3.365C531.791,258.66,531.301,259.15,530.697,259.15z"/>
			<path style="fill:#FFFFFF;stroke:#ADBBF9;stroke-linejoin:round;stroke-miterlimit:10;" d="M454.169,219.313
				c0.027-0.478,0.073-0.988,0.142-1.531c0.563-4.455,4.055-4.046,6.228-3.911c2.173,0.135,4.875,0.207,5.914-1.865
				c0.452-0.902,0.432-1.99,0.729-2.965c0.659-2.161,2.857-3.455,4.957-3.46c2.098-0.004,4.082,1.046,5.802,2.348
				c5.582,4.228,7.183-6.904,9.826-10.125c3.008-3.666,8.61-5.721,12.414-3.06c3.804,2.661,5.988,7.404,6.984,12.189
				c0.324,1.555,0.44,3.463,1.702,4.323c3.691,2.516,8.442-2.365,12.902,1.425c1.561,1.327,1.857,4.541,1.658,6.631H454.169z"/>
		</g>
		<g>
			<g>
				<path style="fill:#FFFFFF;" d="M178.707,447.909c-12.537-18.913-38.786-66.698-16.035-83.144
					c12.493-9.031,29.054-0.814,37.061,19.102c7.604,18.913,10.513,41.255,13.682,63.775"/>
				<g>
					<path style="fill:#ADBBF9;" d="M178.974,447.753c-6.001-9.191-11.4-18.827-15.876-28.853
						c-4.848-10.861-9.312-22.955-8.986-35.028c0.292-10.812,6.864-21.878,18.76-22.346c15.028-0.591,23.97,15.085,28.258,27.252
						c6.682,18.961,9.093,39.168,11.879,58.976c0.075,0.535,0.888,0.308,0.814-0.224c-2.707-19.256-5.075-38.842-11.312-57.349
						c-4.142-12.29-11.75-27.111-26.085-29.252c-10.617-1.585-19.873,6.222-22.259,16.251c-2.746,11.543,1.11,24.201,5.269,34.917
						c4.902,12.631,11.473,24.716,19.005,35.967C178.66,448.392,179.192,448.088,178.974,447.753L178.974,447.753z"/>
				</g>
			</g>
			
				<line style="fill:#FFFFFF;stroke:#ADBBF9;stroke-linejoin:round;stroke-miterlimit:10;" x1="169.121" y1="361.929" x2="198.676" y2="447.967"/>
			<g>
				<path style="fill:#FFFFFF;" d="M128.441,447.924c-10.816-13.991-34.46-49.337-14.833-61.502
					c10.777-6.68,24.064-0.602,30.972,14.13c6.56,13.99,9.069,30.516,11.803,47.174"/>
				<g>
					<path style="fill:#ADBBF9;" d="M128.707,447.768c-5.013-6.602-9.688-13.495-13.668-20.773
						c-4.237-7.748-8.386-16.543-8.578-25.544c-0.191-8.941,5.751-16.508,14.988-17.275c11.589-0.962,19.727,9.404,23.82,18.944
						c6.067,14.142,8.235,29.644,10.707,44.717c0.088,0.535,0.901,0.308,0.814-0.224c-2.432-14.842-4.587-30.048-10.408-44.026
						c-3.912-9.393-11.026-19.28-22.064-20.207c-8.228-0.691-16.349,4.684-18.16,12.847c-1.91,8.609,1.713,17.907,5.357,25.558
						c4.472,9.389,10.305,18.179,16.707,26.356C128.436,448.415,128.919,448.048,128.707,447.768L128.707,447.768z"/>
				</g>
			</g>
			
				<line style="fill:#FFFFFF;stroke:#ADBBF9;stroke-linejoin:round;stroke-miterlimit:10;" x1="119.171" y1="384.324" x2="144.667" y2="447.967"/>
			<path style="fill:#FFFFFF;stroke:#ADBBF9;stroke-linejoin:round;stroke-miterlimit:10;" d="M254.919,447.726
				c-29.635-53.758-48.775-107.055-24.863-132.374c23.695-25.087,48.479,4.641,54.509,30.985
				c7.385,32.264,8.456,67.189,8.31,101.389"/>
			
				<line style="fill:none;stroke:#ADBBF9;stroke-linejoin:round;stroke-miterlimit:10;" x1="238.829" y1="308.82" x2="274.428" y2="447.647"/>
			<g>
				<path style="fill:#FFFFFF;" d="M210.449,447.894c-11.773-28.438-38.253-85.965-19.578-103.746
					c11.943-11.371,33.508,2.568,44.605,27.419c10.538,23.599,13.703,47.894,20.02,75.994"/>
				<g>
					<path style="fill:#ADBBF9;" d="M210.746,447.812c-5.589-13.666-11.482-27.201-16.394-41.134
						c-4.93-13.985-9.859-29.12-9.558-44.122c0.111-5.511,1.075-11.378,4.412-15.922c3.836-5.224,10.015-7.086,16.209-5.505
						c7.272,1.856,13.441,7.067,18.293,12.591c6.608,7.524,11.044,16.468,14.579,25.769c8.339,21.943,11.695,45.377,16.803,68.184
						c0.119,0.53,0.932,0.306,0.814-0.224c-4.865-21.73-8.134-43.998-15.639-65.042c-5.619-15.757-14.605-33.777-30.923-40.775
						c-5.25-2.251-11.399-2.821-16.395,0.385c-4.492,2.883-7.015,7.834-8.107,12.928c-1.359,6.335-0.903,12.98,0.036,19.339
						c1.184,8.016,3.298,15.884,5.733,23.601c5.4,17.116,12.604,33.565,19.545,50.092
						C210.302,448.336,210.897,448.181,210.746,447.812L210.746,447.812z"/>
				</g>
			</g>
			<g>
				<path style="fill:#FFFFFF;" d="M440.132,447.735c-9.988-114.446,14.323-156.257,40.917-158.133
					c12.599-0.889,49.502,6.365,4.946,158.063"/>
				<g>
					<path style="fill:#ADBBF9;" d="M440.328,447.735c-2.46-37.684-4.979-76.841,4.736-113.801
						c4.212-16.023,12.108-36.691,29.375-42.604c6.81-2.332,14.55-1.903,20.319,2.703c10.196,8.139,11.779,23.978,12.165,35.986
						c0.433,13.471-1.032,26.99-3.108,40.28c-3.125,20.01-7.825,39.763-13.133,59.296c-1.632,6.004-3.327,11.991-4.978,17.99
						c-0.103,0.375,0.465,0.529,0.58,0.16c6.763-21.713,12.298-43.959,16.43-66.325c2.717-14.706,4.821-29.644,5.039-44.62
						c0.133-9.11-0.366-18.467-2.908-27.267c-1.497-5.183-3.797-10.34-7.595-14.259c-4.891-5.047-11.722-6.865-18.556-5.782
						c-16.697,2.647-26.143,19.703-31.26,34.159c-4.806,13.578-7.139,27.983-8.491,42.279c-1.98,20.939-1.731,42.069-0.491,63.044
						c0.37,6.262,0.811,12.522,1.484,18.759C439.963,447.979,440.344,447.989,440.328,447.735L440.328,447.735z"/>
				</g>
			</g>
			
				<line style="fill:#FFFFFF;stroke:#ADBBF9;stroke-linejoin:round;stroke-miterlimit:10;" x1="486.234" y1="289.866" x2="462.735" y2="447.665"/>
			<g>
				<path style="fill:#FFFFFF;" d="M518.747,447.743c8.147-68.023,35.589-107.226,60.381-96.585
					c20.28,8.705,9.816,46.572-21.776,96.544"/>
				<g>
					<path style="fill:#ADBBF9;" d="M518.936,447.795c3.072-20.043,6.646-39.884,14.385-58.744
						c5.127-12.497,12.124-25.972,23.33-34.09c7.588-5.497,18.347-7.497,26.163-1.166c9.116,7.384,6.63,21.958,4.072,31.771
						c-5.815,22.315-18.097,42.37-29.792,61.983c-0.2,0.336,0.307,0.623,0.519,0.304c6.794-10.199,12.843-20.987,18.255-31.979
						c4.219-8.569,8.047-17.4,10.783-26.563c3.038-10.174,6.4-24.754-1.122-33.893c-6.026-7.322-16.931-7.781-24.918-3.765
						c-11.436,5.75-18.989,18.003-24.38,29.119c-4.568,9.417-7.994,19.373-10.714,29.469c-3.295,12.23-5.835,24.877-6.964,37.501
						C518.533,447.96,518.902,448.013,518.936,447.795L518.936,447.795z"/>
				</g>
			</g>
			
				<line style="fill:#FFFFFF;stroke:#ADBBF9;stroke-linejoin:round;stroke-miterlimit:10;" x1="579.129" y1="351.158" x2="538.562" y2="447.702"/>
			
				<line style="fill:#FFFFFF;stroke:#ADBBF9;stroke-linejoin:round;stroke-miterlimit:10;" x1="197.326" y1="340.61" x2="233.564" y2="447.967"/>
			<g>
				<path style="fill:#FFFFFF;" d="M521.772,447.869c16.024-33.968,48.337-111.528,24.001-139.028
					c-13.363-15.101-37.82,3.441-50.792,36.743c-12.318,31.624-21.54,64.182-29.184,101.839"/>
				<g>
					<path style="fill:#ADBBF9;" d="M522.039,448.025c8.393-17.647,15.935-35.767,22.023-54.343
						c6.272-19.138,12.002-39.901,10.726-60.237c-0.783-12.47-6.703-32.691-23.012-30.096c-8.83,1.405-16.233,8.345-21.706,14.957
						c-8.037,9.71-13.232,21.051-17.641,32.757c-11.77,31.25-20.383,63.549-27.039,96.248c-0.108,0.53,0.705,0.757,0.814,0.224
						c5.688-27.937,12.769-55.601,22.099-82.556c4.346-12.556,8.699-25.356,15.7-36.724c5.285-8.581,12.236-17.32,21.427-21.939
						c7.13-3.583,14.946-3.148,20.352,3.132c5.075,5.895,7.237,13.765,8.011,21.359c1.968,19.304-3.17,39.265-8.833,57.557
						c-6.295,20.334-14.455,40.074-23.454,59.35C521.339,448.07,521.868,448.385,522.039,448.025L522.039,448.025z"/>
				</g>
			</g>
			
				<line style="fill:#FFFFFF;stroke:#ADBBF9;stroke-linejoin:round;stroke-miterlimit:10;" x1="538.562" y1="304.1" x2="495.714" y2="447.967"/>
			<g>
				<path style="fill:#FFFFFF;" d="M550.063,447.743c21.124-42.821,39.456-54.147,56.677-50.725
					c13.388,2.661,15.483,22.439-12.816,50.699"/>
				<g>
					<path style="fill:#ADBBF9;" d="M550.231,447.841c6.541-11.652,12.452-23.491,21.15-33.759
						c5.372-6.341,11.802-12.371,19.689-15.376c5.497-2.095,12.745-2.94,18.289-0.473c6.177,2.749,7.208,9.788,5.986,15.775
						c-2.71,13.277-12.814,23.878-21.635,33.496c-0.262,0.286,0.141,0.689,0.425,0.425c8.99-8.329,17.953-19.369,21.387-31.366
						c1.677-5.857,1.912-13.309-3.314-17.495c-4.55-3.645-11.835-3.531-17.234-2.328c-7.854,1.75-14.566,6.756-20.1,12.408
						c-4.457,4.551-8.316,9.68-11.833,14.98c-4.925,7.422-9.605,15.335-13.148,23.516
						C549.797,447.868,550.105,448.066,550.231,447.841L550.231,447.841z"/>
				</g>
			</g>
			
				<line style="fill:#FFFFFF;stroke:#ADBBF9;stroke-linejoin:round;stroke-miterlimit:10;" x1="605.081" y1="397.304" x2="572.808" y2="447.714"/>
		</g>
		<g>
			<g>
				<path style="fill:#849CF4;" d="M287.248,447.518c-5.145,0-9.33-4.186-9.33-9.331V107.718c0-5.145,4.185-9.331,9.33-9.331
					h175.504c5.145,0,9.331,4.186,9.331,9.331v330.468c0,5.146-4.186,9.331-9.331,9.331H287.248z"/>
				<path style="fill:#849CF4;" d="M462.752,98.887c4.869,0,8.831,3.962,8.831,8.831v330.468c0,4.869-3.962,8.831-8.831,8.831
					H287.248c-4.869,0-8.831-3.961-8.831-8.831V107.718c0-4.869,3.961-8.831,8.831-8.831H462.752 M462.752,97.887H287.248
					c-5.429,0-9.831,4.401-9.831,9.831v330.468c0,5.429,4.401,9.831,9.831,9.831h175.504c5.429,0,9.831-4.401,9.831-9.831V107.718
					C472.583,102.289,468.181,97.887,462.752,97.887L462.752,97.887z"/>
			</g>
			<g>
				<path style="fill:none;stroke:#4643BF;stroke-miterlimit:10;" d="M383.916,431.958c0,4.924-3.992,8.916-8.916,8.916
					c-4.924,0-8.916-3.992-8.916-8.916c0-4.924,3.992-8.916,8.916-8.916C379.924,423.042,383.916,427.034,383.916,431.958z"/>
			</g>
			<g>
				<defs>
					<path id="SVGID_1_" d="M462.752,448.017H287.248c-5.429,0-9.831-4.401-9.831-9.831V107.718c0-5.429,4.401-9.831,9.831-9.831
						h175.504c5.43,0,9.831,4.401,9.831,9.831v330.468C472.583,443.616,468.181,448.017,462.752,448.017z"/>
				</defs>
				<clipPath id="SVGID_00000168105643299475892430000009170359701341529514_">
					<use xlink:href="#SVGID_1_"  style="overflow:visible;"/>
				</clipPath>
				<g style="clip-path:url(#SVGID_00000168105643299475892430000009170359701341529514_);">
					
						<linearGradient id="SVGID_00000161609863875259427090000012615430456548333712_" gradientUnits="userSpaceOnUse" x1="223.0817" y1="404.7483" x2="515.7789" y2="112.051">
						<stop  offset="0.2704" style="stop-color:#FFFFFF;stop-opacity:0.1"/>
						<stop  offset="1" style="stop-color:#FFFFFF;stop-opacity:0.3"/>
					</linearGradient>
					<polygon style="fill:url(#SVGID_00000161609863875259427090000012615430456548333712_);" points="421.229,59.952 
						275.18,456.847 317.632,456.847 463.68,59.952 					"/>
					
						<linearGradient id="SVGID_00000183965488215977994360000001516012865123141536_" gradientUnits="userSpaceOnUse" x1="272.5466" y1="398.635" x2="553.0172" y2="118.1644">
						<stop  offset="0.2704" style="stop-color:#FFFFFF;stop-opacity:0.1"/>
						<stop  offset="1" style="stop-color:#FFFFFF;stop-opacity:0.3"/>
					</linearGradient>
					<polygon style="fill:url(#SVGID_00000183965488215977994360000001516012865123141536_);" points="476.807,59.952 
						330.758,456.847 348.757,456.847 494.805,59.952 					"/>
				</g>
			</g>
			<rect x="278.973" y="130.497" style="fill:#FFFFFF;" width="192.054" height="284.911"/>
			<g>
				<path style="fill:none;stroke:#4643BF;stroke-miterlimit:10;" d="M364.021,112.414h27.047c0.598,0,1.083,0.485,1.083,1.083l0,0
					c0,0.598-0.485,1.083-1.083,1.083h-27.047c-0.598,0-1.083-0.485-1.083-1.083l0,0
					C362.938,112.899,363.423,112.414,364.021,112.414z"/>
				<circle style="fill:none;stroke:#4643BF;stroke-miterlimit:10;" cx="357.966" cy="113.497" r="1.117"/>
			</g>
			<g>
				<g>
					<rect x="292.096" y="240.83" style="fill:#D3DBF4;" width="82.904" height="83.777"/>
					<g>
						
							<ellipse transform="matrix(0.1593 -0.9872 0.9872 0.1593 13.182 556.8387)" style="fill:none;stroke:#FFFFFF;stroke-miterlimit:10;" cx="333.548" cy="270.679" rx="17.164" ry="17.164"/>
						<ellipse style="fill:none;stroke:#FFFFFF;stroke-miterlimit:10;" cx="333.548" cy="270.679" rx="11.824" ry="17.164"/>
						<ellipse style="fill:none;stroke:#FFFFFF;stroke-miterlimit:10;" cx="333.548" cy="270.679" rx="4.606" ry="17.164"/>
						<line style="fill:none;stroke:#FFFFFF;stroke-miterlimit:10;" x1="316.384" y1="270.679" x2="350.711" y2="270.679"/>
						<path style="fill:none;stroke:#FFFFFF;stroke-miterlimit:10;" d="M318.182,278.331c3.28-1.096,8.937-1.82,15.366-1.82
							c6.427,0,12.083,0.723,15.363,1.819"/>
						<path style="fill:none;stroke:#FFFFFF;stroke-miterlimit:10;" d="M323.161,284.343c2.954-1.122,6.531-1.779,10.387-1.779
							c3.803,0,7.336,0.639,10.266,1.734"/>
						<path style="fill:none;stroke:#FFFFFF;stroke-miterlimit:10;" d="M318.182,263.121c3.28,1.096,8.937,1.82,15.366,1.82
							c6.427,0,12.083-0.723,15.363-1.819"/>
						<path style="fill:none;stroke:#FFFFFF;stroke-miterlimit:10;" d="M323.161,257.109c2.954,1.123,6.531,1.779,10.387,1.779
							c3.803,0,7.336-0.639,10.266-1.734"/>
					</g>
					<g>
						
							<rect x="299.148" y="305.199" transform="matrix(-1 -1.224647e-16 1.224647e-16 -1 667.0956 614.8291)" style="fill:#E3EAFC;" width="68.8" height="4.431"/>
						
							<rect x="326.831" y="296.96" transform="matrix(-1 -1.224647e-16 1.224647e-16 -1 694.779 598.3505)" style="fill:#E3EAFC;" width="41.116" height="4.431"/>
						<rect x="299.148" y="296.96" style="fill:#E3EAFC;" width="23.011" height="4.431"/>
						
							<rect x="299.148" y="313.439" transform="matrix(-1 -1.224647e-16 1.224647e-16 -1 667.0956 631.3079)" style="fill:#E3EAFC;" width="68.8" height="4.431"/>
					</g>
				</g>
				<g>
					<rect x="374.914" y="240.83" style="fill:#F0F1FF;" width="82.904" height="83.777"/>
					<g>
						
							<rect x="381.966" y="255.763" transform="matrix(-1 -1.224647e-16 1.224647e-16 -1 832.7321 515.9571)" style="fill:#E4E9F9;" width="68.8" height="4.431"/>
						
							<rect x="381.966" y="264.002" transform="matrix(-1 -1.224647e-16 1.224647e-16 -1 832.7321 532.4357)" style="fill:#E4E9F9;" width="68.8" height="4.431"/>
						
							<rect x="381.966" y="272.242" transform="matrix(-1 -1.224647e-16 1.224647e-16 -1 785.3563 548.9144)" style="fill:#E4E9F9;" width="21.424" height="4.431"/>
						
							<rect x="409.12" y="272.242" transform="matrix(-1 -1.224647e-16 1.224647e-16 -1 859.7919 548.9144)" style="fill:#E4E9F9;" width="41.552" height="4.431"/>
						
							<rect x="381.966" y="280.481" transform="matrix(-1 -1.224647e-16 1.224647e-16 -1 832.7321 565.393)" style="fill:#E4E9F9;" width="68.8" height="4.431"/>
						
							<rect x="381.966" y="288.72" transform="matrix(-1 -1.224647e-16 1.224647e-16 -1 832.7321 581.8719)" style="fill:#E4E9F9;" width="68.8" height="4.431"/>
						
							<rect x="381.966" y="296.96" transform="matrix(-1 -1.224647e-16 1.224647e-16 -1 832.7321 598.3505)" style="fill:#E4E9F9;" width="68.8" height="4.431"/>
						
							<rect x="430.9" y="305.199" transform="matrix(-1 -1.224647e-16 1.224647e-16 -1 881.6655 614.8291)" style="fill:#E4E9F9;" width="19.867" height="4.431"/>
						
							<rect x="381.966" y="305.199" transform="matrix(-1 -1.224647e-16 1.224647e-16 -1 808.1227 614.8291)" style="fill:#E4E9F9;" width="44.19" height="4.431"/>
						
							<rect x="381.966" y="313.439" transform="matrix(-1 -1.224647e-16 1.224647e-16 -1 832.7321 631.3079)" style="fill:#E4E9F9;" width="68.8" height="4.431"/>
						
							<rect x="432.544" y="247.524" transform="matrix(-1 -1.224647e-16 1.224647e-16 -1 883.3098 499.4783)" style="fill:#E4E9F9;" width="18.222" height="4.431"/>
						<rect x="381.966" y="247.524" style="fill:#E4E9F9;" width="45.906" height="4.431"/>
					</g>
				</g>
				<g>
					<rect x="292.096" y="324.607" style="fill:#F0F1FF;" width="82.904" height="83.777"/>
					<g>
						<rect x="299.148" y="388.998" style="fill:#E4E9F9;" width="68.8" height="4.431"/>
						<rect x="299.148" y="380.758" style="fill:#E4E9F9;" width="68.8" height="4.431"/>
						<rect x="350.254" y="372.519" style="fill:#E4E9F9;" width="17.693" height="4.431"/>
						<rect x="299.242" y="372.519" style="fill:#E4E9F9;" width="45.283" height="4.431"/>
						<rect x="299.148" y="364.28" style="fill:#E4E9F9;" width="68.8" height="4.431"/>
						<rect x="299.148" y="356.04" style="fill:#E4E9F9;" width="68.8" height="4.431"/>
						<rect x="299.148" y="347.801" style="fill:#E4E9F9;" width="68.8" height="4.431"/>
						<rect x="299.148" y="339.561" style="fill:#E4E9F9;" width="31.968" height="4.431"/>
						<rect x="335.859" y="339.561" style="fill:#E4E9F9;" width="32.089" height="4.431"/>
						<rect x="299.148" y="331.322" style="fill:#E4E9F9;" width="68.8" height="4.431"/>
						<rect x="299.148" y="397.237" style="fill:#E4E9F9;" width="32.064" height="4.431"/>
						
							<rect x="335.884" y="397.237" transform="matrix(-1 -1.224647e-16 1.224647e-16 -1 703.8315 798.9047)" style="fill:#E4E9F9;" width="32.064" height="4.431"/>
					</g>
				</g>
				<g>
					<rect x="374.914" y="324.607" style="fill:#D3DBF4;" width="82.904" height="83.777"/>
					<g>
						<g>
							<polygon style="fill:#C2CFEF;" points="433.228,382.265 399.971,381.871 396.248,357.972 436.438,357.901 							"/>
							<polygon style="fill:#C2CFEF;" points="436.438,357.901 396.248,357.972 416.314,341.415 							"/>
							
								<rect x="402.351" y="355.577" transform="matrix(1 -0.0018 0.0018 1 -0.6459 0.7332)" style="fill:#FFFFFF;" width="27.429" height="23.169"/>
							<polygon style="fill:#E3EAFC;" points="396.248,357.972 396.294,384.102 416.367,371.924 							"/>
							<polygon style="fill:#E3EAFC;" points="436.438,357.901 436.485,384.031 416.367,371.924 							"/>
							<polygon style="fill:#E3EAFC;" points="436.485,384.031 396.294,384.102 416.36,367.545 							"/>
							<polyline style="fill:none;stroke:#D3DBF4;stroke-miterlimit:10;" points="396.294,384.102 416.36,367.545 436.485,384.031 
															"/>
							<line style="fill:none;stroke:#D3DBF4;stroke-miterlimit:10;" x1="419.249" y1="369.911" x2="436.438" y2="357.901"/>
						</g>
						<line style="fill:none;stroke:#D3DBF4;stroke-miterlimit:10;" x1="413.482" y1="369.924" x2="396.248" y2="357.972"/>
					</g>
					
						<rect x="400.334" y="394.087" transform="matrix(-1 -1.224647e-16 1.224647e-16 -1 832.7321 792.6044)" style="fill:#E3EAFC;" width="32.064" height="4.431"/>
				</g>
				<g>
					<rect x="292.096" y="149.812" style="fill:#D3DBF4;" width="165.809" height="83.588"/>
					<g>
						
							<rect x="372.664" y="161.832" transform="matrix(-1 -1.224647e-16 1.224647e-16 -1 823.4302 329.4465)" style="fill:#E3EAFC;" width="78.102" height="5.783"/>
						
							<rect x="372.664" y="172.585" transform="matrix(-1 -1.224647e-16 1.224647e-16 -1 823.4302 350.9529)" style="fill:#E3EAFC;" width="78.102" height="5.783"/>
						
							<rect x="372.664" y="183.339" transform="matrix(-1 -1.224647e-16 1.224647e-16 -1 823.4302 372.4596)" style="fill:#E3EAFC;" width="78.102" height="5.783"/>
						
							<rect x="372.664" y="194.092" transform="matrix(-1 -1.224647e-16 1.224647e-16 -1 823.4302 393.966)" style="fill:#E3EAFC;" width="78.102" height="5.783"/>
						
							<rect x="372.664" y="215.598" transform="matrix(-1 -1.224647e-16 1.224647e-16 -1 823.4302 436.9792)" style="fill:#E3EAFC;" width="78.102" height="5.783"/>
						
							<rect x="404.091" y="204.845" transform="matrix(-1 -1.224647e-16 1.224647e-16 -1 854.8566 415.4726)" style="fill:#E3EAFC;" width="46.675" height="5.783"/>
						<rect x="372.664" y="204.845" style="fill:#E3EAFC;" width="26.123" height="5.783"/>
					</g>
					<g>
						<rect x="301.601" y="162.068" style="fill:#E3EAFC;" width="59.077" height="59.077"/>
						<polygon style="fill:#FFFFFF;" points="336.617,180.536 354.595,211.283 318.639,211.283 						"/>
						<polygon style="fill:#FFFFFF;" points="318.4,190.64 322.238,198.035 315.361,211.283 307.684,211.283 						"/>
						<path style="fill:#FFFFFF;" d="M309.196,178.758c0,1.839,1.491,3.33,3.33,3.33c1.839,0,3.33-1.491,3.33-3.33
							c0-1.839-1.491-3.33-3.33-3.33C310.686,175.428,309.196,176.919,309.196,178.758z"/>
					</g>
				</g>
				<path style="fill:#D3DBF4;" d="M328.238,142.975h93.523c1.469,0,2.66-1.191,2.66-2.66l0,0c0-1.469-1.191-2.66-2.66-2.66h-93.523
					c-1.469,0-2.66,1.191-2.66,2.66l0,0C325.578,141.784,326.769,142.975,328.238,142.975z"/>
				<line style="fill:none;stroke:#FFFFFF;stroke-miterlimit:10;" x1="375" y1="240.83" x2="375" y2="408.383"/>
				<line style="fill:none;stroke:#FFFFFF;stroke-miterlimit:10;" x1="292.096" y1="324.607" x2="457.904" y2="324.607"/>
			</g>
		</g>
		<line style="fill:none;stroke:#849CF4;stroke-miterlimit:10;" x1="96.226" y1="448.017" x2="653.774" y2="448.017"/>
		<g>
			<g>
				<g>
					<g>
						<path style="fill:#FFCBBD;" d="M623.051,420.183l1.737,28.542l-0.928,8.977l-34.028-0.18
							c-0.859-0.004-1.552-0.705-1.548-1.564l0,0c0.003-0.644,0.403-1.219,1.004-1.447l15.18-6.98l-3.427-29.698"/>
						<path style="fill:#F7471E;" d="M586.745,457.143c0.36-1.127,1.02-2.394,1.686-2.68l16.095-6.932
							c8.871,3.596,20.355,0.848,20.355,0.848l0.88,12.118c-0.002,0.401-0.329,0.724-0.73,0.722l-38.017-0.2
							C586.226,461.014,586.733,457.178,586.745,457.143z"/>
						<path style="fill:none;stroke:#B22B19;stroke-width:0.75;stroke-miterlimit:10;" d="M601.042,448.225
							c0.902,1.175,1.665,2.457,2.269,3.81"/>
						<path style="fill:none;stroke:#B22B19;stroke-width:0.75;stroke-miterlimit:10;" d="M599.016,449.436
							c0.934,1.294,1.307,2.04,1.865,3.24"/>
						<path style="fill:none;stroke:#B22B19;stroke-width:0.75;stroke-miterlimit:10;" d="M597.303,450.32
							c0.634,0.853,1.257,2.032,1.749,2.973"/>
					</g>
					
						<line style="fill:none;stroke:#B22B19;stroke-width:0.75;stroke-miterlimit:10;" x1="625.554" y1="458.603" x2="586.579" y2="458.397"/>
					<path style="fill:none;stroke:#B22B19;stroke-width:0.75;stroke-miterlimit:10;" d="M625.202,452.804
						c0,0-9.025,0.063-9.836,5.745"/>
					<path style="fill:none;stroke:#B22B19;stroke-width:0.75;stroke-miterlimit:10;" d="M591.729,453.042
						c0,0,2.6,3.695,3.113,5.399"/>
				</g>
				<path style="fill:#0E32AE;" d="M596.316,310.499c0,0-4.89,40.168-3.02,69.338c1.871,29.17,4.571,63.016,4.571,63.016h29.578
					c0,0-3.834-50.085-3.411-73.534c0.468-25.978,8.409-58.819,8.409-58.819"/>
				<path style="fill:none;stroke:#121649;stroke-width:0.75;stroke-miterlimit:10;" d="M621.445,442.853
					c0,0-3.834-50.085-3.411-73.534c0.468-25.978,8.409-58.819,8.409-58.819"/>
				<g>
					<g>
						<path style="fill:#FFCBBD;" d="M661.915,381.958l27.433,8.824l8.276,3.6l-10.464,32.38c-0.264,0.818-1.141,1.266-1.959,1.002
							l0,0c-0.613-0.198-1.04-0.753-1.076-1.395l-2.062-16.58l-28.484-9.255"/>
						<path style="fill:#F7471E;" d="M685.865,429.59c-0.966-0.684-1.973-1.696-2.045-2.417l-1.739-17.438
							c6.111-7.368,6.965-19.145,6.965-19.145l11.816,2.826c0.381,0.123,0.591,0.533,0.468,0.914l-11.69,36.175
							C689.398,431.255,685.895,429.612,685.865,429.59z"/>
						<path style="fill:none;stroke:#B22B19;stroke-width:0.75;stroke-miterlimit:10;" d="M681.689,413.265
							c1.393-0.504,2.846-0.843,4.318-1.01"/>
						<path style="fill:none;stroke:#B22B19;stroke-width:0.75;stroke-miterlimit:10;" d="M682.231,415.563
							c1.516-0.499,2.34-0.629,3.652-0.798"/>
						<path style="fill:none;stroke:#B22B19;stroke-width:0.75;stroke-miterlimit:10;" d="M682.556,417.463
							c1.004-0.347,2.317-0.583,3.363-0.768"/>
					</g>
					
						<line style="fill:none;stroke:#B22B19;stroke-width:0.75;stroke-miterlimit:10;" x1="698.995" y1="393.04" x2="687.01" y2="430.127"/>
					<path style="fill:none;stroke:#B22B19;stroke-width:0.75;stroke-miterlimit:10;" d="M693.362,391.621
						c0,0-2.67,8.622,2.501,11.113"/>
					<path style="fill:none;stroke:#B22B19;stroke-width:0.75;stroke-miterlimit:10;" d="M683.464,423.598
						c0,0,4.308-1.361,6.087-1.334"/>
				</g>
				<path style="fill:#0E32AE;" d="M644.474,311.795c0,0,2.656,11.418,2.656,16.318c0,3.599-1.433,6.046-2.194,8.685
					c-0.325,1.127-0.512,2.276-0.563,3.448c-0.228,5.252-0.534,19.994,2.757,26.998c4.045,8.608,37.685,20.036,37.685,20.036
					l-8.531,25.689c0,0-51.496-12.94-57.918-28.702c-8.961-21.993-6.397-72.471-6.397-72.471"/>
				<path style="fill:none;stroke:#121649;stroke-width:0.75;stroke-miterlimit:10;" d="M624.577,391.623
					c-2.971-2.351-5.176-4.818-6.211-7.357c-8.961-21.993-6.397-72.471-6.397-72.471"/>
				<path style="fill:none;stroke:#121649;stroke-width:0.75;stroke-miterlimit:10;" d="M640.107,310.84
					c0,0,3.023,14.373,3.023,19.273c0,3.665-1.486,6.247-2.235,8.827c-0.303,1.044-0.483,2.113-0.55,3.198
					c-0.322,5.185-0.887,20.224,2.785,27.106c5.092,9.542,40.334,22.103,40.334,22.103"/>
				<path style="fill:none;stroke:#121649;stroke-width:0.75;stroke-miterlimit:10;" d="M607.764,314.605c0,0-0.451,10.367,1,11.611
					c1.451,1.244,2.865,2.074,2.865,2.074"/>
				
					<line style="fill:none;stroke:#121649;stroke-width:0.75;stroke-miterlimit:10;" x1="680.572" y1="385.759" x2="671.184" y2="411.583"/>
				
					<line style="fill:none;stroke:#121649;stroke-width:0.75;stroke-miterlimit:10;" x1="597.467" y1="437.767" x2="627.072" y2="437.767"/>
				<path style="fill:none;stroke:#121649;stroke-width:0.75;stroke-miterlimit:10;" d="M631.995,312.589
					c0,0,1.845,6.617,10.06,8.567"/>
				<path style="fill:none;stroke:#121649;stroke-width:0.75;stroke-miterlimit:10;" d="M595.366,320c0,0,7.422-2.169,9.703-7.411"
					/>
			</g>
			<g>
				<path style="fill:#FFCBBB;" d="M613.264,232.479l-1.327,9.308c0,0-0.117,2.579,4.897,4.374c6.075,2.175,9.763-2.501,9.763-2.501
					l-0.404-9.415"/>
				<path style="fill:#FFCBBB;" d="M612.522,220.141c0,0-6.449,10.781-1.97,15.09c4.062,3.908,12.994,1.459,13.807,0.094
					c0.813-1.365,5.897-13.414,3.115-15.071C622.529,217.308,615.284,215.505,612.522,220.141z"/>
				<path style="fill:none;stroke:#EF977F;stroke-miterlimit:10;" d="M612.585,237.244c0,0,4.371,1.402,8.409-0.362"/>
				<g>
					<path style="fill:#4A1A1A;" d="M611.444,213.135c0.847-6.368,8.565-1.604,11.706,1.305c0.943,0.873,6.45,2.491,7.346,3.413
						c0.896,0.921,1.62,2.053,1.856,3.316c0.206,1.107,0.029,2.251-0.24,3.344c-0.483,1.966-1.258,3.847-2.03,5.719
						c-0.841,2.041-2.347,6.101-5.257,5.676c-0.563-0.082-1.178-0.192-1.548-0.624c-0.365-0.427-0.383-1.048-0.32-1.607
						c0.103-0.911,0.381-1.799,0.8-2.614c-0.604,0.162-1.223,0.525-1.801,0.296c-0.191-0.076-0.285-0.262-0.392-0.437
						c-0.383-0.622,0.081-4.738,1.998-6.36c-2.769-1.311-4.936-1.431-7.76-2.619c-2.272-0.956-3.251-2.119-4.064-3.209
						C610.576,217.174,611.188,215.063,611.444,213.135z"/>
				</g>
				<g>
					<path style="fill:#FFCBBB;" d="M623.076,230.69c0.705-0.99,1.795-2.125,2.832-1.092c0.367,0.365,0.472,0.984,0.51,1.568
						c0.125,1.942-1.837,4.422-3.552,3.741c-0.836-0.332-1.071-1.474-1.222-2.405"/>
				</g>
				<path style="fill:none;stroke:#F7A794;stroke-width:0.5;stroke-miterlimit:10;" d="M613.948,224.899
					c0,0-2.792,2.739-2.793,3.673c-0.001,0.934,2.094,1.51,2.094,1.51"/>
				<path style="fill:#FFFFFF;" d="M610.102,230.412l5.001,1.868c0,0-1.164,2.964-4.161,1.604
					C608.803,232.914,610.102,230.412,610.102,230.412z"/>
				<g>
					<g>
						<path style="fill:#212237;" d="M611.828,223.37c-0.153,0.218-0.291,0.445-0.419,0.679c-0.245,0.447,0.448,0.848,0.681,0.398
							c0.137-0.265,0.259-0.534,0.367-0.812C612.606,223.249,612.037,223.073,611.828,223.37L611.828,223.37z"/>
					</g>
				</g>
				<path style="fill:none;stroke:#212237;stroke-width:0.5;stroke-linecap:round;stroke-linejoin:round;stroke-miterlimit:10;" d="
					M613.976,222.42c0,0-0.623-1.391-2.113-0.738"/>
				<g>
					<g>
						<path style="fill:#212237;" d="M618.069,226.371c-0.14,0.226-0.264,0.459-0.379,0.699c-0.218,0.459,0.476,0.858,0.681,0.398
							c0.122-0.273,0.234-0.548,0.326-0.833C618.819,226.256,618.27,226.047,618.069,226.371L618.069,226.371z"/>
					</g>
				</g>
				<path style="fill:none;stroke:#212237;stroke-width:0.5;stroke-linecap:round;stroke-linejoin:round;stroke-miterlimit:10;" d="
					M618.273,224.072c0,0,1.521-0.17,2.619,1.827"/>
			</g>
			<g>
				<g>
					<g>
						<path style="fill:#FFCBBD;" d="M591.637,191.736c-0.412-5.409,0.318-20.718-0.631-21.122
							c-0.949-0.403-1.339,4.783-2.056,4.306c-0.717-0.476-0.658-8.496-1.713-8.646c-1.43-0.203-1.052,8.014-1.052,8.014
							s-0.864-8.979-2.155-8.796c-0.915,0.13-0.571,7.013-0.769,9.66c-0.15-2.896-0.999-8.285-1.946-8.131
							c-0.939,0.154-0.755,5.57-0.844,9.17c-0.155-2.252-0.607-7.171-1.488-7.069c-0.879,0.101-1.146,12.89-1.163,23.668"/>
					</g>
					<path style="fill:#FFCBBD;" d="M590.275,245.891c0,0-5.805-12.156-9.438-26.334c-3.633-14.178-2.995-32.609-2.995-32.609
						l13.64,2.295c0,0,0.621,25.726,16.151,51.274"/>
					<path style="fill:none;stroke:#F7A794;stroke-miterlimit:10;" d="M580.659,176.802c1.121,1.707,2.612,3.717,2.539,7.06"/>
					<path style="fill:none;stroke:#F7A794;stroke-miterlimit:10;" d="M588.834,176.152c-1.313,1.169-2.733,4.321-2.047,5.939"/>
				</g>
				<path style="fill:#ADBBF9;" d="M635.535,189.125c1.994-2.341,3.756-4.941,5.215-7.8c1.458-2.859,2.529-5.813,3.253-8.801
					l-8.081-2.736c0.604-2.787,0.812-5.607,0.657-8.388l8.421-1.433c-0.502-6.272-2.476-12.355-5.752-17.727l-7.658,3.784
					c-1.507-2.342-3.331-4.502-5.456-6.404l4.935-6.959c-2.341-1.994-4.941-3.757-7.8-5.215c-2.859-1.458-5.813-2.529-8.801-3.253
					l-2.736,8.081c-2.787-0.604-5.606-0.812-8.388-0.657l-1.433-8.421c-6.272,0.502-12.355,2.476-17.727,5.752l3.784,7.658
					c-2.342,1.507-4.502,3.331-6.404,5.456l-6.96-4.935c-1.994,2.341-3.757,4.941-5.215,7.801c-1.458,2.859-2.529,5.813-3.253,8.801
					l8.081,2.736c-0.603,2.787-0.812,5.607-0.657,8.388l-8.421,1.433c0.502,6.272,2.476,12.355,5.752,17.727l7.658-3.784
					c1.508,2.342,3.331,4.503,5.456,6.404l-4.935,6.96c2.341,1.994,4.941,3.757,7.8,5.215c2.859,1.458,5.813,2.529,8.801,3.253
					l2.736-8.081c2.787,0.604,5.607,0.812,8.388,0.657l1.433,8.421c6.272-0.502,12.356-2.476,17.727-5.752l-3.784-7.658
					c2.342-1.507,4.503-3.331,6.404-5.456L635.535,189.125z M598.087,176.815c-7.56-3.856-10.563-13.11-6.707-20.671
					c3.856-7.56,13.111-10.563,20.671-6.707c7.56,3.856,10.563,13.111,6.707,20.671
					C614.902,177.668,605.647,180.671,598.087,176.815z"/>
				<path style="fill:#F7471E;" d="M612.125,240.47c-4.06,0-10.39-12.979-10.39-12.979l-16.297,12.118
					c0,0,5.211,16.206,14.045,26.483"/>
				
					<line style="fill:none;stroke:#B22B19;stroke-width:0.75;stroke-miterlimit:10;" x1="603.096" y1="230.082" x2="586.486" y2="242.556"/>
				<g>
					<g>
						<path style="fill:#FFCBBD;" d="M654.284,185.113c-0.871-5.951-3.135-19.969-4.14-20.2c-1.005-0.23-1.415,3.111-1.009,4.472
							c-0.637-2.548-2.397-8.122-3.462-8.085c-1.444,0.051,0.368,8.074,0.368,8.074s-2.423-8.689-3.663-8.283
							c-0.878,0.288,0.666,7.004,0.934,9.645c-0.654-2.825-2.434-7.982-3.34-7.665c-0.898,0.316,0.232,5.616,0.775,9.176
							c-0.547-2.19-1.853-6.954-2.703-6.699c-0.848,0.253,1.362,11.252,2.676,22.221"/>
					</g>
					<path style="fill:#FFCBBD;" d="M651.469,241.063c0,0,3.609-12.978,4.729-27.572c1.12-14.593-2.704-32.634-2.704-32.634
						l-13.035,4.625c0,0,3.849,25.444-7.016,53.298"/>
				</g>
				<path style="fill:#F7471E;" d="M612.125,240.47c0,0,0.79,2.283,5.287,2.513c5.79,0.296,9.011-2.513,9.011-2.513
					s17.262,2.291,18.657,21.15c1.606,21.72,2.05,52.23,2.05,52.23h-53.834c0,0,0.361-34.842,1.495-51.465
					C595.878,246.454,612.125,240.47,612.125,240.47z"/>
				<path style="fill:#F7471E;" d="M645.043,264c6.488-16.875,8.798-29.759,8.798-29.759l-17.285-8.365
					c0,0-4.114,11.471-10.133,14.594"/>
				
					<line style="fill:none;stroke:#B22B19;stroke-width:0.75;stroke-miterlimit:10;" x1="635.164" y1="229.189" x2="653.101" y2="237.772"/>
				
					<line style="fill:none;stroke:#B22B19;stroke-width:0.75;stroke-miterlimit:10;" x1="593.296" y1="310.87" x2="647.078" y2="310.87"/>
				<path style="fill:none;stroke:#B22B19;stroke-width:0.75;stroke-miterlimit:10;" d="M645.514,262.763
					c0,0-2.188,4.689-2.423,7.046"/>
				<path style="fill:none;stroke:#B22B19;stroke-width:0.75;stroke-miterlimit:10;" d="M598.782,250.364
					c0,0-3.266,5.539-3.991,12.02"/>
				<path style="fill:none;stroke:#B22B19;stroke-width:0.75;stroke-miterlimit:10;" d="M610.077,239.609
					c0,0,0.924,6.282,7.924,6.282c8.596,0,10.298-6.282,10.298-6.282"/>
				<g>
					<path style="fill:#EF977F;" d="M649.134,169.385c-0.005-0.058,0.077,0.101,0.106,0.159l0.128,0.24l0.218,0.49
						c0.146,0.326,0.256,0.663,0.368,0.999c0.205,0.679,0.374,1.363,0.44,2.094c-0.225-0.295-0.384-0.62-0.535-0.945
						c-0.155-0.324-0.27-0.662-0.382-1c-0.101-0.342-0.199-0.684-0.258-1.038l-0.086-0.531l-0.021-0.272l-0.009-0.137
						C649.096,169.42,649.115,169.276,649.134,169.385z"/>
				</g>
			</g>
		</g>
		<g>
			<g>
				<g>
					<g>
						<path style="fill:#FFCBBD;" d="M521.797,418.634l0.939,29.619l-0.963,9.316l-35.312-0.186
							c-0.892-0.004-1.611-0.732-1.606-1.623l0,0c0.003-0.668,0.418-1.265,1.042-1.502l15.753-7.243l-2.379-30.819"/>
						<path style="fill:#18277A;" d="M483.257,456.989c0.373-1.17,1.059-2.484,1.749-2.781l16.703-7.194
							c9.206,3.732,21.123,0.88,21.123,0.88l0.913,12.575c-0.002,0.416-0.341,0.752-0.758,0.75l-39.451-0.208
							C482.719,461.006,483.245,457.026,483.257,456.989z"/>
						<path style="fill:none;stroke:#121649;stroke-width:0.75;stroke-miterlimit:10;" d="M498.093,447.734
							c0.936,1.22,1.728,2.55,2.355,3.954"/>
						<path style="fill:none;stroke:#121649;stroke-width:0.75;stroke-miterlimit:10;" d="M495.991,448.991
							c0.97,1.342,1.357,2.117,1.936,3.362"/>
						<path style="fill:none;stroke:#121649;stroke-width:0.75;stroke-miterlimit:10;" d="M494.213,449.909
							c0.658,0.885,1.304,2.108,1.815,3.085"/>
					</g>
					
						<line style="fill:none;stroke:#121649;stroke-width:0.75;stroke-miterlimit:10;" x1="523.531" y1="458.504" x2="483.085" y2="458.291"/>
					<path style="fill:none;stroke:#121649;stroke-width:0.75;stroke-miterlimit:10;" d="M523.166,452.487
						c0,0-9.366,0.066-10.208,5.962"/>
					<path style="fill:none;stroke:#121649;stroke-width:0.75;stroke-miterlimit:10;" d="M488.429,452.733
						c0,0,2.698,3.835,3.23,5.603"/>
				</g>
				<path style="fill:#0D219B;" d="M517.702,302.251c0,0,4.297,7.235,5.539,12.633c1.971,8.575-0.004,17.361-0.004,17.361
					l-0.087,103.541h-26.215c0,0-5.817-119.324-3.232-134.751"/>
				<path style="fill:none;stroke:#121649;stroke-width:0.75;stroke-miterlimit:10;" d="M500.934,435.785
					c0,0-5.817-119.324-3.232-134.751"/>
				<g>
					<g>
						<path style="fill:#FFCBBD;" d="M492.845,406.971l11.911,27.135l2.579,9.003l-32.837,12.989
							c-0.829,0.328-1.767-0.078-2.095-0.908l0,0c-0.246-0.621-0.084-1.33,0.408-1.782l11.918-12.593l-13.694-27.711"/>
						<path style="fill:#0E32AE;" d="M471.377,456.928c-0.09-1.225,0.057-2.699,0.587-3.233l12.818-12.901
							c9.934,0.032,19.929-7.057,19.929-7.057l5.535,11.329c0.153,0.387-0.037,0.825-0.424,0.978l-36.686,14.512
							C472.375,460.856,471.38,456.966,471.377,456.928z"/>
						<path style="fill:none;stroke:#121649;stroke-width:0.75;stroke-miterlimit:10;" d="M481.696,442.81
							c1.323,0.783,2.554,1.723,3.659,2.791"/>
						<path style="fill:none;stroke:#121649;stroke-width:0.75;stroke-miterlimit:10;" d="M480.213,444.76
							c1.4,0.884,2.048,1.459,3.049,2.398"/>
						<path style="fill:none;stroke:#121649;stroke-width:0.75;stroke-miterlimit:10;" d="M478.905,446.274
							c0.941,0.576,1.996,1.47,2.834,2.186"/>
					</g>
					
						<line style="fill:none;stroke:#121649;stroke-width:0.75;stroke-miterlimit:10;" x1="509.314" y1="443.323" x2="471.703" y2="458.2"/>
					<path style="fill:none;stroke:#121649;stroke-width:0.75;stroke-miterlimit:10;" d="M506.732,437.875
						c0,0-8.667,3.552-7.25,9.337"/>
					<path style="fill:none;stroke:#121649;stroke-width:0.75;stroke-miterlimit:10;" d="M474.591,451.051
						c0,0,3.933,2.552,5.086,3.995"/>
				</g>
				<path style="fill:#0E32AE;" d="M472.504,319.125c-13.471,33.106-13.712,36.612-15.931,52.768
					c-2.276,16.577,22.634,65.387,22.634,65.387l23.9-10.553c0,0-15.854-44.661-14.828-52.341
					c1.887-14.127,18.194-38.234,18.194-38.234s7.742-6.13,9.425-14.271c1.683-8.142-2.02-16.669-2.02-16.669"/>
				<path style="fill:none;stroke:#121649;stroke-width:0.75;stroke-miterlimit:10;" d="M497.076,323.029
					c0.35-0.117,10.731-3.383,10.731-3.383"/>
				
					<line style="fill:none;stroke:#121649;stroke-width:0.75;stroke-miterlimit:10;" x1="519.963" y1="316.613" x2="523.377" y2="315.528"/>
				<path style="fill:none;stroke:#121649;stroke-width:0.75;stroke-miterlimit:10;" d="M480.504,318.125
					c0,0-16.654,36.191-18.931,52.768c-2.276,16.577,21.952,64.03,21.952,64.03"/>
				<path style="fill:none;stroke:#121649;stroke-width:0.75;stroke-miterlimit:10;" d="M493.824,358.475
					c5.174-11.378,12.65-22.323,12.65-22.323s7.742-6.13,9.425-14.271"/>
			</g>
			<g>
				<path style="fill:#FFCBBD;" d="M470.237,237.198l6.853,11.926c0,0-4.108,8.886-15.211,4.669l-2.845-6.301L470.237,237.198z"/>
				<path style="fill:#FFCBBD;" d="M452.029,229.128c0,0-3.373,15.863,2.5,18.692c3.053,1.47,11.593,0.561,13.609-2.695
					c1.496-2.416,0.909-13.855-0.923-15.242C460.217,224.579,452.029,229.128,452.029,229.128z"/>
				<g>
					<path style="fill:#212237;" d="M466.9,224.43c-2.567-4.484-7.795-3.59-16.292,1.246c-1.137,0.647-3.615,0.88-3.643,2.188
						c-0.037,1.72,1.202,4.552,3.191,5.121c1.328,0.38,2.031,0.257,3.376-0.056c1.769-0.411,4.13,0.303,4.105,2.38
						c-0.007,0.544-0.166,1.54,0.342,1.735c0.257,0.099,0.92,0.021,1.196,0.03c0.796,0.027,1.228,1.004,1.13,1.795
						c-0.098,0.791,0.404,1.366,0.302,2.156c-0.241,1.871,2.15,3.923,4.031,4.068c1.664,0.128,6.517-0.68,8.819-3.808
						c1.997-2.713,1.743-7.291-1.589-14.106C470.59,224.566,467.788,223.772,466.9,224.43z"/>
				</g>
				<path style="fill:#FFCBBD;" d="M457.483,237.755c0.542-2.54,1.853-2.825,2.985-2.135c1.51,0.92,1.177,4.544,0.617,5.411
					c-1.134,1.756-2.487,2.297-3.255,1.051"/>
				<path style="fill:none;stroke:#E88872;stroke-width:0.5;stroke-linejoin:round;stroke-miterlimit:10;" d="M459.573,248.481
					c1.75-1.455,1.487-4.227,1.487-4.227"/>
				<g>
					<g>
						<path style="fill:#28364C;" d="M452.543,236.709c-0.243,0.547-0.323,1.361,0.131,1.707c0.128,0.098,0.284,0.098,0.419,0.015
							C453.974,237.883,453.052,235.566,452.543,236.709z"/>
					</g>
				</g>
				<path style="fill:none;stroke:#28364C;stroke-width:0.75;stroke-miterlimit:10;" d="M451.823,234.955
					c0.679-0.08,1.874-0.017,2.576,0.544"/>
				<path style="fill:#FFFFFF;" d="M454.749,242.548l-2.564-0.085c0,0-0.104,3.149,1.1,3.209
					C454.616,245.739,454.749,242.548,454.749,242.548z"/>
			</g>
			<g>
				<path style="fill:#ADBBF9;" d="M475.506,246.368c0,0,5.972-1.532,14.421,0.931c7.126,2.077,16.204,7.416,23.031,14.677
					c11.823,12.573,6.371,43.817,6.371,43.817l-15.372-0.582c0,0,2.412-20.077-5.639-28.127c-8.051-8.051-19.413-9.94-19.413-9.94"
					/>
				<g>
					<path style="fill:#FFCBBD;" d="M410.285,290.259c-4.817,1.338-19.408,2.923-19.643,3.919c-0.235,0.996,4.905,0.506,4.559,1.288
						c-0.346,0.782-8.203,2.071-8.172,3.129c0.042,1.434,8.018-0.318,8.018-0.318s-3.315,0.593-2.919,1.826
						c0.281,0.874,1.632,1.142,4.255,0.891c-1.438,0.325-2.002,1.017-1.692,1.919c0.308,0.893,1.701,0.835,3.177,0.637
						c-1.015,0.229-1.798,0.903-1.143,1.493c0.857,0.771,6.814,0.441,17.363-1.352"/>
				</g>
				<path style="fill:#ADBBF9;" d="M460.324,250.36c0,0,4.113,1.768,8.664,0c4.551-1.769,6.518-3.992,6.518-3.992
					s10.333-0.709,22.909,11.867c12.702,12.702,22.575,48.726,22.575,48.726l-52.062,17.499c0,0-8.905-31.542-12.408-45.904
					C453.017,264.193,460.324,250.36,460.324,250.36z"/>
				<path style="fill:none;stroke:#525BCE;stroke-width:0.75;stroke-miterlimit:10;" d="M497.735,254.93
					c10.406,12.152,23.256,52.031,23.256,52.031"/>
				<path style="fill:#ADBBF9;" d="M460.324,250.36c-6.858,2.626-12.745,9.282-16.362,16.137c-5.924,11.23-9.53,19.377-9.53,19.377
					l-29.852,4.474l1.481,15.923c0,0,20.264-0.601,36.416-3.029c11.476-1.725,20.362-25.514,20.362-25.514"/>
				<path style="fill:none;stroke:#525BCE;stroke-width:0.75;stroke-miterlimit:10;" d="M458.314,251.262
					c0,0,3.304,4.408,11.221,1.439c7.917-2.969,8.203-6.638,8.203-6.638"/>
				
					<line style="fill:none;stroke:#525BCE;stroke-width:0.75;stroke-miterlimit:10;" x1="459.034" y1="285.912" x2="462.278" y2="279.056"/>
				
					<line style="fill:none;stroke:#525BCE;stroke-width:0.75;stroke-miterlimit:10;" x1="409.25" y1="289.648" x2="410.372" y2="306.046"/>
				
					<line style="fill:none;stroke:#525BCE;stroke-width:0.75;stroke-miterlimit:10;" x1="467.972" y1="321.057" x2="519.963" y2="303.871"/>
			</g>
		</g>
		<g>
			<g>
				<path style="fill:#FFCBBD;" d="M263.208,277.476c0.234,0.155,0.471,0.305,0.709,0.455c2.334,1.477,4.706,2.971,7.355,3.752
					c1.536,0.453,3.206,0.688,4.458,1.686c0.506,0.404,0.941,0.831,1.504,1.157c0.149,0.086,1.625,0.636,1.561,0.481
					c0.216,0.527,0.797,0.789,1.326,1c0.062,0.025,0.128,0.05,0.194,0.037s0.125-0.08,0.103-0.143
					c0.191,0.372,0.863,0.536,1.076,0.335c0.213-0.201-0.319-1.141-0.319-1.141s0.36,0.025,0.465-0.095
					c0.172-0.195,0.209-0.469,0.226-0.726c0.162-2.411-0.784-4.874-2.528-6.582"/>
			</g>
			<g>
				<g>
					<path style="fill:#F49C8E;" d="M279.829,282.457c-0.005,0.413,0.24,0.831,0.397,1.205c0.173,0.413,0.348,0.805,0.564,1.197
						c0.098,0.178,0.35,0.052,0.314-0.132c-0.093-0.474-0.25-0.903-0.461-1.337c-0.175-0.358-0.35-0.777-0.689-1.003
						C279.899,282.351,279.829,282.398,279.829,282.457L279.829,282.457z"/>
				</g>
			</g>
			<g>
				<g>
					<path style="fill:#F49C8E;" d="M277.322,282.543c0.89,0.972,1.782,1.885,2.559,2.954c0.083,0.115,0.288,0.052,0.243-0.102
						c-0.382-1.313-1.691-2.115-2.631-3.023C277.38,282.263,277.217,282.428,277.322,282.543L277.322,282.543z"/>
				</g>
			</g>
			<g>
				<line style="fill:none;stroke:#0E32AE;stroke-miterlimit:10;" x1="261.207" y1="461.219" x2="243.44" y2="279.867"/>
				<polyline style="fill:none;stroke:#0E32AE;stroke-miterlimit:10;" points="330.384,461.219 312.617,279.867 243.44,279.867 				
					"/>
				<line style="fill:none;stroke:#0E32AE;stroke-miterlimit:10;" x1="294.849" y1="461.219" x2="312.617" y2="279.867"/>
				<polyline style="fill:none;stroke:#0E32AE;stroke-miterlimit:10;" points="225.673,461.219 243.44,279.867 312.617,279.867 				
					"/>
				<line style="fill:none;stroke:#0E32AE;stroke-miterlimit:10;" x1="327.54" y1="435.527" x2="228.19" y2="435.527"/>
				<line style="fill:none;stroke:#0E32AE;stroke-miterlimit:10;" x1="325.23" y1="413.32" x2="230.366" y2="413.32"/>
				<line style="fill:none;stroke:#0E32AE;stroke-miterlimit:10;" x1="323.456" y1="390.503" x2="232.601" y2="390.503"/>
				<line style="fill:none;stroke:#0E32AE;stroke-miterlimit:10;" x1="321.24" y1="368.755" x2="234.732" y2="368.755"/>
				<line style="fill:none;stroke:#0E32AE;stroke-miterlimit:10;" x1="319.099" y1="346.037" x2="236.863" y2="346.037"/>
				<line style="fill:none;stroke:#0E32AE;stroke-miterlimit:10;" x1="316.894" y1="323.523" x2="239.089" y2="323.523"/>
				<line style="fill:none;stroke:#0E32AE;stroke-miterlimit:10;" x1="314.307" y1="302.261" x2="241.246" y2="302.261"/>
			</g>
			<g>
				<path style="fill:#FFCBBD;" d="M259.349,279.409c7.098,0.023,14.195,0.007,21.292-0.048c-0.665-1.201-1.09-1.955-1.85-2.706
					c-0.938-0.929-1.656-1.476-2.644-1.983c-3.301-1.692-6.999-2.604-10.709-2.639"/>
			</g>
			<path style="fill:#E23917;" d="M234.57,230.48c0,0,9.708,25.305,12.134,27.426c2.426,2.121,25.551,13.619,25.551,13.619
				l-7.088,14.999c0,0-27.821-11.113-31.807-14.999c-3.986-3.886-16.668-18.946-17.943-34.062"/>
			<g>
				<g>
					<g>
						<path style="fill:#FFCBBD;" d="M216.034,395.885l-0.997,27.235l0.843,8.572l32.476-0.012c0.82,0,1.485-0.666,1.484-1.486l0,0
							c0-0.614-0.379-1.165-0.952-1.386l-14.454-6.733l2.327-28.332"/>
						<path style="fill:#F7471E;" d="M251.304,431.332c-0.338-1.078-0.962-2.289-1.596-2.566l-15.328-6.691
							c-8.484,3.391-19.43,0.713-19.43,0.713l-0.897,11.561c0,0.382,0.311,0.693,0.693,0.693l36.282-0.013
							C251.781,435.029,251.315,431.366,251.304,431.332z"/>
						<path style="fill:none;stroke:#B22B19;stroke-width:0.75;stroke-miterlimit:10;" d="M237.701,422.754
							c-0.866,1.117-1.6,2.337-2.183,3.626"/>
						<path style="fill:none;stroke:#B22B19;stroke-width:0.75;stroke-miterlimit:10;" d="M239.63,423.92
							c-0.898,1.23-1.257,1.941-1.795,3.083"/>
						<path style="fill:none;stroke:#B22B19;stroke-width:0.75;stroke-miterlimit:10;" d="M241.26,424.772
							c-0.609,0.811-1.209,1.933-1.683,2.829"/>
					</g>
					
						<line style="fill:none;stroke:#B22B19;stroke-width:0.75;stroke-miterlimit:10;" x1="214.26" y1="432.543" x2="251.457" y2="432.53"/>
					<path style="fill:none;stroke:#B22B19;stroke-width:0.75;stroke-miterlimit:10;" d="M214.622,427.011
						c0,0,8.613,0.103,9.361,5.529"/>
					<path style="fill:none;stroke:#B22B19;stroke-width:0.75;stroke-miterlimit:10;" d="M246.567,427.395
						c0,0-2.499,3.514-2.996,5.138"/>
				</g>
				<path style="fill:#ADBBF9;" d="M208.861,293.504c0,0-3.131,13.879,3.602,30.695c0,0,3.26,17.579,3.523,37.677
					c0.268,20.502-2.461,46.624-2.461,56.38h26.717c0,0,3.275-27.781,3.566-55.781c0.326-31.363-2.328-66.763-2.328-75.902"/>
				<path style="fill:none;stroke:#525BCE;stroke-width:0.75;stroke-miterlimit:10;" d="M236.241,418.256
					c0,0,3.281-28.293,3.576-56.645c0.323-31.146-2.337-65.983-2.337-75.039"/>
				<g>
					<g>
						<path style="fill:#FFCBBD;" d="M261.204,373.72l-0.997,27.235l0.843,8.571l32.476-0.012c0.82,0,1.485-0.665,1.484-1.486l0,0
							c0-0.615-0.379-1.165-0.952-1.386l-14.454-6.733l2.327-28.332"/>
						<path style="fill:#F7471E;" d="M296.475,409.167c-0.338-1.078-0.962-2.289-1.596-2.566l-15.328-6.691
							c-8.483,3.391-19.43,0.713-19.43,0.713l-0.897,11.561c0,0.383,0.311,0.693,0.694,0.693l36.282-0.013
							C296.952,412.864,296.486,409.201,296.475,409.167z"/>
						<path style="fill:none;stroke:#B22B19;stroke-width:0.75;stroke-miterlimit:10;" d="M282.872,400.589
							c-0.866,1.118-1.6,2.337-2.183,3.626"/>
						<path style="fill:none;stroke:#B22B19;stroke-width:0.75;stroke-miterlimit:10;" d="M284.8,401.755
							c-0.898,1.23-1.257,1.941-1.796,3.083"/>
						<path style="fill:none;stroke:#B22B19;stroke-width:0.75;stroke-miterlimit:10;" d="M286.431,402.607
							c-0.609,0.811-1.209,1.933-1.683,2.829"/>
					</g>
					
						<line style="fill:none;stroke:#B22B19;stroke-width:0.75;stroke-miterlimit:10;" x1="259.43" y1="410.379" x2="296.627" y2="410.365"/>
					<path style="fill:none;stroke:#B22B19;stroke-width:0.75;stroke-miterlimit:10;" d="M259.793,404.846
						c0,0,8.613,0.103,9.36,5.529"/>
					<path style="fill:none;stroke:#B22B19;stroke-width:0.75;stroke-miterlimit:10;" d="M291.737,405.23
						c0,0-2.499,3.514-2.996,5.138"/>
				</g>
				<path style="fill:#ADBBF9;" d="M253.868,295.02c0,0,25.673,24.334,31.457,40.181c4.033,11.049-1.828,61.471-1.828,61.471h-25.57
					c0,0,3.116-45.898,1.503-50.635c-1.897-5.571-23.912-24.564-23.912-24.564s-9.389-2.104-13.822-12.089
					c-3.995-9-2.146-19.92-2.146-19.92"/>
				<path style="fill:none;stroke:#525BCE;stroke-width:0.75;stroke-miterlimit:10;" d="M247.868,295.02
					c0,0,26.613,28.13,31.457,40.181c3.68,9.154-1.828,61.471-1.828,61.471"/>
				<path style="fill:none;stroke:#525BCE;stroke-width:0.75;stroke-miterlimit:10;" d="M243.262,328.399
					c-2.017-1.831-5.509-4.973-6.573-5.906c-0.683-0.599-1.464-1.07-2.323-1.367c-2.644-0.917-9.187-3.897-12.67-11.742"/>
				<path style="fill:none;stroke:#525BCE;stroke-width:0.75;stroke-miterlimit:10;" d="M228.773,303.778c0,0,7.656,0.267,10.857,0"
					/>
				
					<line style="fill:none;stroke:#525BCE;stroke-width:0.75;stroke-miterlimit:10;" x1="208.134" y1="303.778" x2="214.307" y2="303.778"/>
			</g>
			<g>
				<g>
					<g>
						<g>
							<path style="fill:#FFCBBD;" d="M299.748,233.401c2.684-1.224,14.902-6.567,15.19-5.825c0.276,0.714-3.585,3.289-3.157,3.411
								c0.236,0.067,3.693-0.829,5.421-1.676c1.542-0.756,4.141-1.718,4.556-1.09c0.791,1.195-7.719,5.235-7.719,5.235
								s1.505-0.692,2.27,0.239c1.103,1.342-1.231,2.585-1.231,2.585s1.337-0.68,1.779,0.477c0.459,1.201-1.544,2.178-1.544,2.178
								s1.588-0.762,1.79,0.688c0.264,1.905-12.436,6.385-12.436,6.385"/>
						</g>
					</g>
				</g>
				<path style="fill:#F7471E;" d="M237.837,221.042c0,0-2.551,2.026-6.63,1.332c-4.079-0.695-5.069-2.663-5.069-2.663
					s-10.847,1.51-16.062,34.962c-3.664,23.505-2.446,42.62-2.446,42.62h49.453c0,0,1.51-51.108-1.005-60.607"/>
				<path style="fill:#F7471E;" d="M241.728,245.627c0,0,14.65,16.184,28.318,16.184c13.668,0,39.397-14.507,39.397-14.507
					l-6.147-16.87l-29.895,10.723c0,0-15.745-14.71-23.009-17.421c-7.264-2.712-12.555-2.693-12.555-2.693"/>
				<path style="fill:none;stroke:#B22B19;stroke-width:0.75;stroke-miterlimit:10;" d="M257.478,258.087
					c0,0-9.202-7.017-13.643-10.314"/>
				
					<line style="fill:none;stroke:#B22B19;stroke-width:0.75;stroke-miterlimit:10;" x1="300.444" y1="231.457" x2="306.073" y2="249.12"/>
				
					<line style="fill:none;stroke:#B22B19;stroke-width:0.75;stroke-miterlimit:10;" x1="207.479" y1="293.177" x2="257.19" y2="293.177"/>
				<path style="fill:none;stroke:#B22B19;stroke-width:0.75;stroke-miterlimit:10;" d="M248.75,251.462
					c0.484,14.215,0,45.831,0,45.831"/>
			</g>
			<g>
				<path style="fill:#FFCBBD;" d="M226.316,212.421l-1.123,9.025c0,0,8.713,4.569,14.491-0.287v-5.264L226.316,212.421z"/>
				<path style="fill:#FFCBBD;" d="M238.142,198.257c0,0,10.182,12.836,6.459,17.592c-1.935,2.472-8.248,1.88-11.257,0
					c-2.233-1.395-8.467-8.842-7.513-10.746C229.474,197.83,238.142,198.257,238.142,198.257z"/>
				<path style="fill:#4A1A1A;" d="M236.832,200.608c0.167,5.202-0.497,9.853-0.497,9.853l-0.78,16.894
					c0,0-13.437,1.432-22.03-4.535c0,0,2.881-17.751,9.286-23.13c6.092-5.116,14.022-4.746,18.05-1.437c0,0-0.56,1.55-1.312,1.907
					C238.797,200.516,236.832,200.608,236.832,200.608"/>
				<path style="fill:#FFCBBD;" d="M237.713,208.758c-1.243-1.576-2.25-1.326-2.799-0.46c-0.733,1.154,0.737,3.553,1.421,3.963
					c1.386,0.83,2.509,0.742,2.616-0.384"/>
				<path style="fill:none;stroke:#E88872;stroke-width:0.5;stroke-linejoin:round;stroke-miterlimit:10;" d="M239.798,217.43
					c-1.466,0-1.937-1.23-1.937-1.23"/>
				<g>
					<g>
						<path style="fill:#28364C;" d="M240.819,204.767c0.426,0.355,0.826,0.999,0.59,1.472c-0.067,0.134-0.196,0.198-0.342,0.184
							C240.111,206.329,239.929,204.026,240.819,204.767z"/>
					</g>
				</g>
				<path style="fill:none;stroke:#28364C;stroke-width:0.5;stroke-linecap:round;stroke-miterlimit:10;" d="M240.699,203.015
					c-0.959,0-1.565,0.753-1.918,1.507"/>
				<path style="fill:#FFFFFF;" d="M241.595,211.396l2.263-0.726c0,0,0.891,2.78-0.167,3.139
					C242.523,214.206,241.595,211.396,241.595,211.396z"/>
				<g>
					<path style="fill:#4A1A1A;" d="M229.268,196.663c0.898-0.229,1.525-1.167,1.5-2.093c-0.025-0.927-0.635-1.785-1.453-2.221
						c-0.818-0.436-1.812-0.477-2.705-0.229c-0.341,0.095-0.674,0.231-0.958,0.442c-1.16,0.858-1.129,2.712-0.308,3.897
						c0.336,0.484,0.804,0.91,1.378,1.045c0.574,0.135,1.765-0.07,2.438-0.469"/>
				</g>
			</g>
			<path style="fill:#FFCBBD;" d="M241.901,204.62c0.255,0.139,2.936,1.3,2.954,2.381c0.01,0.61-1.477,1.273-1.477,1.273"/>
			<g>
				<path style="fill:#FFCBBD;" d="M277.155,277.29c1.599,1.724,2.133,3.425,2.78,4.806c0.029,0.062,0.059,0.127,0.061,0.196
					c0.009,0.318-0.469,0.346-0.766,0.234c-0.68-0.257-1.314-0.635-1.865-1.11c-0.219-0.188-0.426-0.394-0.677-0.537
					c-0.457-0.262-1.004-0.292-1.526-0.357c-2.149-0.265-4.314-1.334-5.357-3.232"/>
			</g>
			<g>
				<path style="fill:#E88872;" d="M277.155,277.29c1.099,1.015,1.889,2.343,2.5,3.7l0.471,1.005
					c0.032,0.125,0.109,0.227,0.079,0.402c-0.032,0.185-0.196,0.317-0.319,0.356c-0.257,0.089-0.473,0.063-0.699-0.003
					c-0.739-0.265-1.406-0.656-1.999-1.157c-0.29-0.258-0.525-0.493-0.828-0.607c-0.305-0.125-0.659-0.17-1.027-0.216
					c-0.75-0.09-1.505-0.258-2.207-0.548c-1.402-0.563-2.688-1.564-3.321-2.933c0.814,1.257,2.09,2.102,3.456,2.573
					c0.692,0.221,1.396,0.392,2.124,0.456c0.368,0.039,0.761,0.075,1.151,0.223c0.403,0.145,0.714,0.446,0.979,0.674
					c0.531,0.471,1.161,0.854,1.816,1.104c0.126,0.045,0.301,0.055,0.396,0.019c0.051-0.02,0.048-0.029,0.048-0.029
					c0.009-0.011-0.034-0.081-0.041-0.134c-0.159-0.342-0.294-0.69-0.431-1.034C278.768,279.765,278.101,278.448,277.155,277.29z"/>
			</g>
		</g>
		<g>
			<g>
				<g>
					<g>
						<path style="fill:#FFCBBD;" d="M106.826,420.183l-0.905,28.542l0.928,8.977l34.028-0.18c0.859-0.004,1.552-0.705,1.548-1.564
							l0,0c-0.003-0.644-0.403-1.219-1.005-1.447l-15.18-6.98l2.292-29.698"/>
						<path style="fill:#18277A;" d="M143.964,457.143c-0.36-1.127-1.02-2.393-1.686-2.68l-16.095-6.932
							c-8.872,3.596-20.355,0.848-20.355,0.848l-0.88,12.118c0.002,0.401,0.329,0.724,0.73,0.722l38.017-0.2
							C144.483,461.014,143.976,457.178,143.964,457.143z"/>
						<path style="fill:none;stroke:#5565AA;stroke-width:0.75;stroke-miterlimit:10;" d="M129.667,448.225
							c-0.902,1.175-1.665,2.457-2.269,3.81"/>
						<path style="fill:none;stroke:#5565AA;stroke-width:0.75;stroke-miterlimit:10;" d="M131.693,449.436
							c-0.934,1.294-1.307,2.04-1.865,3.24"/>
						<path style="fill:none;stroke:#5565AA;stroke-width:0.75;stroke-miterlimit:10;" d="M133.406,450.32
							c-0.634,0.853-1.257,2.032-1.749,2.973"/>
					</g>
					
						<line style="fill:none;stroke:#5565AA;stroke-width:0.75;stroke-miterlimit:10;" x1="105.155" y1="458.603" x2="144.13" y2="458.397"/>
					<path style="fill:none;stroke:#5565AA;stroke-width:0.75;stroke-miterlimit:10;" d="M105.507,452.804
						c0,0,9.025,0.063,9.836,5.745"/>
					<path style="fill:none;stroke:#5565AA;stroke-width:0.75;stroke-miterlimit:10;" d="M138.98,453.042c0,0-2.6,3.695-3.113,5.399
						"/>
				</g>
				<path style="fill:#ADBBF9;" d="M109.976,318.042c0,0,18.085,33.891,23.823,55.206c5.739,21.315-1.894,69.318-1.894,69.318
					h-28.14c0,0,5.613-52.103-1.032-69.318c-6.644-17.216-30.418-62.521-30.418-62.521"/>
				<path style="fill:none;stroke:#525BCE;stroke-width:0.75;stroke-miterlimit:10;" d="M107.619,442.565
					c0,0,4.613-54.201,1.806-67.59c-2.806-13.389-22.262-44.553-22.262-44.553"/>
				<g>
					<g>
						<path style="fill:#FFCBBD;" d="M74.587,404.308l-16.632,22.923l-4.53,7.805l27.624,19.872c0.698,0.502,1.67,0.343,2.172-0.354
							l0,0c0.376-0.523,0.391-1.223,0.039-1.761l-8.169-14.574l18.434-24.042"/>
						<path style="fill:#18277A;" d="M83.767,456.418c0.372-1.123,0.583-2.536,0.214-3.159l-8.938-15.074
							c-9.29-2.31-16.959-11.288-16.959-11.288l-7.84,9.282c-0.234,0.326-0.16,0.779,0.166,1.014l30.861,22.201
							C81.91,459.854,83.756,456.454,83.767,456.418z"/>
						<path style="fill:none;stroke:#5565AA;stroke-width:0.75;stroke-miterlimit:10;" d="M77.451,440.796
							c-1.421,0.42-2.792,1.008-4.076,1.746"/>
						<path style="fill:none;stroke:#5565AA;stroke-width:0.75;stroke-miterlimit:10;" d="M78.378,442.968
							c-1.517,0.496-2.258,0.881-3.415,1.523"/>
						<path style="fill:none;stroke:#5565AA;stroke-width:0.75;stroke-miterlimit:10;" d="M79.242,444.69
							c-1.014,0.316-2.211,0.904-3.163,1.375"/>
					</g>
					
						<line style="fill:none;stroke:#5565AA;stroke-width:0.75;stroke-miterlimit:10;" x1="51.524" y1="434.77" x2="83.163" y2="457.53"/>
					<path style="fill:none;stroke:#5565AA;stroke-width:0.75;stroke-miterlimit:10;" d="M55.22,430.287
						c0,0,7.261,5.36,4.575,10.432"/>
					<path style="fill:none;stroke:#5565AA;stroke-width:0.75;stroke-miterlimit:10;" d="M82.149,450.17
						c0,0-4.276,1.459-5.693,2.535"/>
				</g>
				<path style="fill:#ADBBF9;" d="M64.896,310.726c-5.358,15.186,0,27.138,0,27.138s18.267,33.388,18.267,40.172
					c0,6.224-23.436,41.683-23.436,41.683l21.431,17.225c0,0,33.663-36.227,33.025-61.299c-0.789-31-17.657-64.92-17.657-64.92"/>
				<path style="fill:none;stroke:#525BCE;stroke-width:0.75;stroke-miterlimit:10;" d="M68.896,311.726
					c-5.358,15.186,1.111,25.421,1.111,25.421s17.156,35.105,17.156,41.889c0,6.224-24.351,43.163-24.351,43.163"/>
				<path style="fill:none;stroke:#525BCE;stroke-width:0.75;stroke-miterlimit:10;" d="M105.66,403.132
					c5.017-9.214,8.739-18.991,8.523-27.486c-0.789-31-17.657-64.92-17.657-64.92"/>
				<path style="fill:none;stroke:#525BCE;stroke-width:0.75;stroke-miterlimit:10;" d="M67.14,323.637
					c0,0,9.563,0.563,13.313-7.125"/>
				<path style="fill:none;stroke:#525BCE;stroke-width:0.75;stroke-miterlimit:10;" d="M103.789,328.024c0,0,2.62,0.29,2.369-1.007
					s-2.369-8.282-2.369-8.282"/>
			</g>
			<g>
				<path style="fill-rule:evenodd;clip-rule:evenodd;fill:#FFCBBB;" d="M115.938,230.159c0.981,6.123,0.207,11.534-5.021,12.346
					c-5.228,0.813-12.487-0.676-13.911-9.405c-0.998-6.121,2.461-11.746,7.689-12.559
					C109.923,219.73,114.957,224.035,115.938,230.159z"/>
				<g>
					<g>
						<path style="fill:#28364C;" d="M111.706,230.214c-0.108,0.562-0.007,1.337,0.49,1.561c0.141,0.064,0.286,0.03,0.393-0.077
							C113.292,230.999,111.934,229.041,111.706,230.214z"/>
					</g>
				</g>
				<path style="fill:none;stroke:#28364C;stroke-width:0.5;stroke-linecap:round;stroke-linejoin:round;stroke-miterlimit:10;" d="
					M109.961,228.826c1.292-0.696,2.521-0.632,3.608-0.247"/>
				<path style="fill:#FFFFFF;" d="M115.102,236.56l-3.407,0.01c0,0-0.205,2.834,1.489,3.125
					C114.6,239.939,115.102,236.56,115.102,236.56z"/>
				<g>
					<path style="fill-rule:evenodd;clip-rule:evenodd;fill:#FFCBBB;" d="M108.151,249.21c0,0-4.074,0.699-7.897-0.345
						c-4.515-1.233-5.799-3.068-5.799-3.068l6.261-13.065l9.66,4.381L108.151,249.21z"/>
				</g>
				<path style="fill:none;stroke:#EF977F;stroke-miterlimit:10;" d="M109.355,242.663c0,0-4.213,0.136-6.394-1.931"/>
				<path style="fill-rule:evenodd;clip-rule:evenodd;fill:#FFCBBB;" d="M114.834,229.972c0,0,2.613,3.836,2.48,4.521
					c-0.133,0.685-2.027,0.984-2.027,0.984"/>
				<g>
					<path style="fill:#14122D;" d="M100.764,238.628c-0.568,0.247-1.253,0.346-1.798,0.408c-1.228,0.14-2.501-0.048-3.602-0.623
						c-2.011-1.05-3.304-3.445-2.849-5.668c0.074-0.364,0.191-0.719,0.25-1.085c0.273-1.71-0.73-3.344-1.011-5.052
						c-0.273-1.657,0.163-3.4,1.097-4.796c0.934-1.396,2.343-2.447,3.912-3.047c1.252-0.479,2.625-0.651,3.664-1.552
						c0.483-0.419,0.924-0.893,1.465-1.234c2.601-1.637,6.309-0.74,8.632,0.986c0.276,0.205,0.551,0.431,0.882,0.52
						c0.571,0.153,1.167-0.085,1.747,0.031c2.229,0.449,3.208,3.742,3.185,5.712c-0.007,0.583-0.15,1.178-0.499,1.645
						c-0.501,0.669-1.354,0.986-2.184,1.088c-1.159,0.142-2.363-0.094-3.496,0.253c-0.796,0.244-1.482,0.757-2.255,1.067
						c-1.193,0.477-2.585,0.432-3.745-0.121c0.232,0.815,0.403,1.669,0.277,2.506c-0.237,1.575-1.567,2.347-2.984,2.738
						c0.466,1.587,0.847,3.58,0.351,5.197C101.65,238.097,101.25,238.417,100.764,238.628z"/>
				</g>
				<path style="fill:#FFCBBB;" d="M102.697,231.118c0,0-1.249-1.523-2.717-0.299c-1.898,1.582,0.574,4.988,2.077,5.546
					c1.504,0.558,1.946-1.108,1.946-1.108"/>
			</g>
			<g>
				<path style="fill:#ADBBF9;" d="M173.747,297.79c1.976-1.667,3.796-3.582,5.399-5.752c1.603-2.171,2.897-4.473,3.909-6.853
					l-6.327-3.382c0.884-2.229,1.445-4.538,1.699-6.867l7.182-0.03c0.447-5.271-0.353-10.589-2.331-15.496l-6.873,2.085
					c-0.928-2.15-2.143-4.193-3.644-6.063l5.052-5.093c-1.667-1.976-3.581-3.796-5.752-5.399c-2.171-1.603-4.473-2.897-6.853-3.909
					l-3.382,6.326c-2.229-0.884-4.539-1.445-6.867-1.699l-0.03-7.182c-5.271-0.447-10.589,0.353-15.496,2.331l2.085,6.873
					c-2.15,0.928-4.193,2.144-6.063,3.644l-5.093-5.052c-1.976,1.667-3.796,3.581-5.399,5.752c-1.603,2.171-2.898,4.473-3.909,6.853
					l6.326,3.382c-0.884,2.229-1.445,4.539-1.699,6.867l-7.182,0.03c-0.447,5.271,0.353,10.589,2.331,15.496l6.873-2.085
					c0.928,2.15,2.143,4.193,3.644,6.063l-5.052,5.093c1.667,1.976,3.582,3.796,5.752,5.399c2.171,1.603,4.473,2.898,6.853,3.909
					l3.382-6.327c2.229,0.884,4.539,1.445,6.867,1.699l0.03,7.182c5.271,0.447,10.589-0.353,15.496-2.331l-2.085-6.873
					c2.15-0.928,4.193-2.143,6.063-3.644L173.747,297.79z M144.512,282.246c-5.641-4.166-6.837-12.116-2.671-17.758
					c4.166-5.641,12.116-6.837,17.758-2.671c5.641,4.166,6.837,12.116,2.671,17.758
					C158.104,285.216,150.153,286.412,144.512,282.246z"/>
				<g>
					<g>
						<g>
							<path style="fill:#FFCBBD;" d="M153.962,296.242c2.939,0.252,16.206,1.598,16.093,2.385c-0.11,0.758-4.596,1.01-4.426,1.42
								c0.243,0.583,3.624,1.092,5.546,1.202c1.714,0.099,4.45,0.537,4.504,1.288c0.102,1.429-9.295,0.77-9.295,0.77
								c0.031,0.432,10.238-1.181,10.447,0.006c0.302,1.711-10.581,2.553-10.93,2.963c0,0,9.233-3.35,9.456-2.084
								c0.223,1.266-7.947,4.462-10.554,4.512c2.131-0.443,8.41-3.978,8.572-3.054c0.162,0.923-5.388,3.335-6.293,3.485
								c-7.428,1.229-15.028,0.502-15.028,0.502"/>
						</g>
					</g>
				</g>
				<path style="fill:#0E32AE;" d="M108.313,248.373c0,0-2.852,1.351-7.166-0.523c-4.686-2.036-5.675-4.38-5.675-4.38
					s-25.438,2.253-34.744,72.834l52.089,6.46c0,0,4.193-25.228,3.523-45.644C115.912,264.121,110.862,254.006,108.313,248.373"/>
				<path style="fill:#0E32AE;" d="M93.031,276.628c0,0,8.01,26.839,29.65,32.645c19.278,5.172,34.311,5.149,34.311,5.149
					l2.096-18.095c0,0-23.562-4.228-33.257-10.641c-7.382-4.883-8.822-20.525-10.69-26.059c-2.595-7.684-6.828-11.255-6.828-11.255"
					/>
				<path style="fill:none;stroke:#121649;stroke-width:0.75;stroke-miterlimit:10;" d="M93.394,244.018
					c0,0,1.596,4.923,9.021,6.535c5.423,1.177,7.546-0.439,7.546-0.439"/>
				<path style="fill:none;stroke:#121649;stroke-width:0.75;stroke-miterlimit:10;" d="M114.183,306.231
					c0,0-19.729-9.114-20.79-34.927"/>
				
					<line style="fill:none;stroke:#121649;stroke-width:0.75;stroke-miterlimit:10;" x1="154.71" y1="295.451" x2="152.055" y2="314.215"/>
			</g>
		</g>
	</g>
</g>
</svg>
